<svg version="1" xmlns="http://www.w3.org/2000/svg" width="1066.667" height="1066.667" viewBox="0 0 800.000000 800.000000"><path d="M95.8 36.7c0 .5-.2 8.9-.3 18.8-.2 9.9-.3 18.7-.4 19.6-.1 1.1-1.5 1.8-4.6 2.2-12.5 1.8-25.7 14.5-28.1 27.3-.9 5.1-.9 372.7 0 377.9 2.2 11.7 14.2 24.1 26.1 26.9 1.6.4 57 .7 123.1.7l120.2.1.6 5.6c1.2 10.9 7.6 20.9 16.1 25.5 3.6 2 6 2.3 22.5 2.7l18.5.5.2 9.8c.2 11.4.8 12.8 8.2 17.8 2.8 1.8 5.1 3.6 5.1 3.9 0 .3-1.7 1.2-3.8 2.1-2 .9-13.8 6.2-26.3 11.8L350.4 600l-7.5-2.4c-20.5-6.7-55.9-14.9-80.7-18.6-15.7-2.4-46.1-3.4-56.2-1.9-22 3.2-33.9 10-39.9 22.8-2.1 4.6-2.6 7-2.6 13.6 0 18.5 11.2 29.5 36.8 36 35.7 9 78.6 2.6 135.4-20.4 8.3-3.4 15.7-6.1 16.5-6.1 1.3 0 19.6 6 33.6 11l3.2 1.2v8.4c0 7.2-.3 8.5-1.8 9-10.3 3.4-20.9 11.2-26.5 19.7-6.6 9.9-8 15.9-8.2 35.7-.1 9.6.2 18.3.7 19.2.7 1.5 2.3 1.8 9.8 1.8h9v15c0 14.7.1 15.2 2.5 17.5 3.9 4 8.7 3 11.4-2.3.4-.9.9-7.1.9-13.7s.1-13 .1-14.3c.1-2.2.3-2.2 13.6-2.2H414v30.9l2.6 2c3.1 2.4 4.3 2.6 7.9.9 3.4-1.5 3.9-3.9 3.9-20V729h8.6c5.4 0 9.1-.5 9.8-1.2 1.5-1.5 1.7-30.1.2-37.9-1.4-7.5-7.1-18.6-12.2-23.8-5.5-5.5-10.1-8.6-17.5-11.6l-5.8-2.4-.5-14c-.7-18.4.7-17-25.3-26.6l-4.9-1.7 3.9-1.8c2.1-.9 6.3-2.9 9.3-4.3 3-1.4 11-5.1 17.8-8.1l12.3-5.5 6.7 4.3c19 12.3 49.4 28.5 67.9 36.2 13.3 5.6 29.8 11 43 14 10.5 2.5 13.8 2.8 29.8 2.8 19.9.1 25.3-.9 37.5-6.6 7.8-3.8 18.5-14 22.2-21.3 7.8-15.3 7.8-34.6.1-49.9-8.6-17-22.9-27.6-45.7-33.5-37.8-9.9-82.3-2.4-147.7 25l-12 4.9-7.4-5.2-7.5-5.3V544h16.9c20.9 0 23.9-.8 31.9-9 3.8-3.8 7.5-12.8 8-19.2l.4-5.6 120.2-.1c66.1 0 121.5-.3 123.2-.7 9.7-2.3 19.2-10.3 24-20l2.9-5.9v-380l-2.7-5.7c-5-10.6-16.3-19.4-26.4-20.6l-4.4-.5V36H446l-9.3 5.3c-14.3 8.3-26.5 13.5-33.9 14.4-8 1-23.9-5-41.6-15.8l-6.4-3.9H225.4c-71.2 0-129.5.3-129.6.7zm258.4 30.4c8.3 4.9 26 13.7 29.1 14.4l2.7.7.1 127.4c.1 70.1.3 127.8.4 128.4.1.5.3 1.7.4 2.5.2 2.4 9 7.5 12.9 7.5 4.3 0 9.7-2.5 12.2-5.8 2-2.4 2-4.6 2-131.2V82.3l4.3-1.2c2.3-.7 10.8-4.8 19-9.2L452 64h225v406H446.9l-14.2 6.8c-17.3 8.4-19.8 9.2-26.2 8.7-2.7-.2-5-.5-5-.6 0-.1-1.6-.3-3.6-.4-1.9-.1-4.2-.6-5-1-.8-.5-2.4-.8-3.6-.6-1.3.1-2.3-.2-2.3-.7 0-.5-.6-.9-1.2-.9-4.6-.3-6.8-.9-6.8-1.7 0-.5-.3-.7-.6-.4-1 1-10.9-2.4-19.5-6.8l-4.6-2.4h-231V267l-.1-203h225.7l5.3 3.1zm215.3 487.4c10.1 1.6 19.6 4.5 26.8 8.1 19.3 9.9 25.9 36.7 12.6 51.8-14.9 16.9-48 16.9-93.9-.1-12.1-4.4-42.2-19.2-56.5-27.7l-10.9-6.5 4.9-2.1c26.5-11.5 61.3-21.5 85-24.3 7.7-1 23.8-.6 32 .8zm-310 45.4c19 2.9 54.5 10.7 57.7 12.7 1.3.8-11.8 5.6-29.7 10.9-35.4 10.4-65 11.5-89 3.3-12-4.1-15.7-8.6-13.5-16.8 1.6-6.1 8.5-9.6 23.5-12 8.8-1.3 36.1-.3 51 1.9z"/><path d="M248.5 171.7c-32.9 5-55.8 29.2-55.8 58.7.1 17.9 7.5 31.4 23.8 43.6 5.7 4.2 9.2 6.1 29.3 16 16 7.8 22.1 11.7 25 15.8 3.1 4.2 3.7 9.6 1.8 14.6-3 7.8-8.5 11.1-20.7 12.2-13.6 1.2-25.9-2.9-43.8-14.8-5.7-3.8-10.5-6.7-10.6-6.6-1.8 2.2-21.5 36.6-21.3 37.3.4 2 9.1 8.3 17.7 12.8 17.1 9 37.2 13.9 56.7 13.6 31.2-.4 53-10.6 64.7-30.2 7.7-12.8 10.3-34.6 5.7-47.2-6.5-17.3-21.6-30.4-48.5-42-27.9-12-35.5-17.8-35.5-26.6 0-4.6 3.7-10.3 8.3-13 3-1.6 6.2-2.4 11.9-2.7 10.3-.6 19.6 1.6 31.8 7.6 5.2 2.6 9.8 4.8 10.1 5 .4.2 4.7-7.7 9.7-17.5l9-17.8-4.6-3.2c-8.1-5.5-22.2-11.1-35.2-13.8-7.4-1.6-24.4-2.6-29.5-1.8zM490 273v102h117v-20.4c0-15.4-.3-20.5-1.2-20.8-.7-.2-16.5-.3-35-.3l-33.8.1V294h3.8c2-.1 17-.2 33.2-.3l29.5-.2v-41l-33.2-.3-33.3-.2v-39l34.8-.2 34.7-.3v-41l-58.2-.3-58.3-.2v102z"/></svg>